/* XPM */
static char *_b7673a07fdc4a07e7b228722696840f8JxpQprxjT33hvDU[] = {
/* columns rows colors chars-per-pixel */
"64 64 6 1 ",
"  c gray32",
". c gray38",
"X c gray65",
"o c gray71",
"O c #888788",
"+ c #6E6D6D",
/* pixels */
"    ......XXXXXX  ....... .....XooXXX....  ...OXoooooXXXOO+++...",
".  .....+XXXooXXXX  ....  ...XXooXXXXXX...  ..OOXoooXXXOOOO+++..",
".. ...++XXoooXXooXX  . .  ..XXooooooXXXXX..  ..OOXXoXXXXXXX++++.",
".....++XXXXoooooOXX      ..XXXXooooooXXXXX.   .OXXXXXXOOXXXX++O+",
".....+XXXooooXXXOOXX    ..ooXXooooXooXXXXOO.   .OXXXXOOOOXXXXOOO",
"....++XoooOoXXOOOXXOO   .oooooooooXXoXXOOOOO.   .OXOXXOOXXXXXOOX",
"....+XXXoOOoXXXOOOO++ . XooooooooXXooOOOO+OO. .  +OOOOO++OOXXOXX",
"....+XXXXOOOXXooOOOO+ ..OXoooXoooXoXXOOO+++O.  .  ++OOOO++OOXXXO",
"....+XXXXOOXXoooXO+++..OOOXoXOXoXOXXXXOOO+++.. .. .++O++++OXXXO+",
"....XXXXOXOOXXXooOO++..OOXXXXOOXOOXOOXX+++++.  .   .+++++OO+OX++",
"....XXOXOXXOOXXXO+++.. XXXOOXXOOO+OOXXO++++..       .+++OOO++OO+",
" ....XOOOXXOOOXXXX++.. OXXXO+OOOOO+OOOOO++..   ....   ++++OO+++.",
"  ...XXOOOXOOXX+X++.   OO++O++OOOO++OO+++..  .OXXOOXX...+OO++++.",
".  ...XXOOOOO++++++..   OO+++OOOO+++++++... .OXXXXXOOOO..O++++. ",
".. ....OOOOOOO++++..... OOO+++++OOO++++... .OXooXXXXXXOO...... .",
".  ....O+OOOO+++OXXo.....OOOO++OOO++++.....OOooXXXXXOOOO......  ",
"  ....++++OO+++OXXoooX....OO++OOO+++......+XooooXXXOOXXOO.....  ",
"  ...+++....+OOOXooooooX.. .OOOO++.... ...XooXoXXXXXOOXXXO..    ",
" ..+++......OOOXXoooXoXXX.. .........  ..oooXXXXXXXXXXXXOOO..  .",
".OOXO++....XOXOOooooXOOOX+.  .......  .OOO+OooXooXXXXXXOOOO.. ..",
"OOXoXO++..XXXXOXXooooXOOO++.  ....   .OO++OOOooooooXXOXXOOO+ ...",
"OXooXXO+..XXXXXooooOOOOOX++..   .   ..O++OOXoooooXXOOOXOOO+++..O",
"XXoooOOO+.XOXXooXoooOOOXXX++.        .++OOXooXXoooXXXOOOO+++.+OX",
"oooooXOO+.+OOXXOOXoXXOOOXX+++.       ..++OOXXXoooXXooOO++++.+Xoo",
"XoooXXXOO++OOOXXOOXXXXOOOOO+++.       ..++OO+Xoooooo+O++++++oooX",
"XoooOXXOO+++OO+XOOOOOXXXOOO+++.    ..  ..++O+++XooX++++OO+.OOOoo",
"ooXoOOXOO++++++OOOOOXX+OOOO+++  . ..... ..++++XXXOOO++OO+..+OOOO",
"ooXOXOXO+++++++OOOOOO+++OO+++.  .....XooX..++XXXOOOO+OOO+.+++OOO",
"OoXXXOOO++.+++++OOOO+++OO++++. ...OOXoooooX..XXOOOOOOOO+..+++++O",
"OOXXXOO+++..+++++OOO++++++++. .OOOXXXXoooXXX..XOOO+OOOO+..++OO++",
"+OXXOOO+.....++..+O+++++++++..OOOXXXXoooXXoooX.+O+++OO+.. +OO+++",
"++XOOOO+......++...++++++++..XXXOoooXXXoooooXO...+++O+..  .OOO++",
"+OOOOO+..oXOOOX+..+++.++++..XXXXXXoooXOOOoXXOOO........    .OOOO",
"OOOOO+.ooooXOXXX+++++..+++..XXXXoooXXOOOXXOXXOO........   .++OOO",
"OOO++.ooooooXXXOOO++++.....OOXoooXXXXXXOOOO++OO.. ....    .++++.",
"++++.oooXXoooXOOOOO++OO....+OOOXooOOXXOOO+++OO++. ......    ++..",
"++++ooXooXXXooooOO++OO++..++O++OoOOXXXXOOO++O+++   ....OXXX..++.",
"+++ooXXXXXXXOoXOOOOO++++...+++OOOOOOOX++++++++++   ...OXXXXX..++",
".++OoooXXXXOOO++OOOOO+++.  .+++OOOOOOOO+++O+++++ . ..OXXXOOOOO..",
"..OOOoooOOXX+++++OOOOO++..   +++O++OO+++OOOO++++....OXXooXOOoXX.",
"..+OXXXXXOOOO++++++OO+++.      .++OO++OOOO+++++... OXXooXXXooXXO",
"...+XXXXOO++++++++OO+++    .OOO  ++++++O...+++...  OoooooXoooooX",
"+++++XOO+++++++++OOOO+  +++OOOOXX..++++++...+.... OXXooooooooXXX",
"O++++...+++++OOOOO++..+++O+XOOXXXXX...++++......  OooooooooXXXXO",
"OOO+++......+++OO++. .++OOoXOOOXXooXO....++..    OooOOooXXooXXOO",
"OO+++++......  ..   .++++OooXOoooooOOOO.......  OOOooOOOoXXXXOOO",
"OOOO++++++++..    ..+++++ooooXXooXXXXXXO.....   OOOOOOOXXXXXXXOO",
"OOOOO+++OoXX++++.   ++O+OOoooooooXOOXXXXO...  .OOOOOOXXXOOOOOXXX",
"OO+++++OoooXXO++++..++OOOXXooooOOOOXXXXXOO.....OOOOOOOOXXOOOXXXO",
"O+++++OooooooXO++++..+OOXoooooXXOOOOXXXXXO+... OOOOOOOOOOOO++OO+",
"+++++OoooOooXXXO++++.++OOXooXOOOOXXXXXXOOO++..  OOOOO+OOO+++OO++",
"++ .OXoooOOOOXXXO++++.++OooOOOOOXOOXXXXXO++++.. OOOO++++++++++++",
". .+oXXoOOOOOOXXO++++. +oooXOOOXXXOOOXXO++++++...OOOOO++++++++++",
"  +OooXXOOOXXOOOXO+++  +ooooXOOOXO+OXXO++OO+++....OOO++OOO+++++.",
" .OXooXXXOOOXXOOOOO++   +XXXXOOOO++XXOOOOO++++.......OOOO++++...",
" +OooooooXXXXOOOOOO+. . ++OOOOOOO++OXOOOOOOO++.........OOOO+....",
"OOXXooooooXOO+OOOO++...+++OO+OOO+++OOOOOOOO++....XX++.....  ....",
"OOXXXooooOOO+++OO++......+O++O+O++OOOOOOO+++....XXXXX+.....   . ",
"OXXooooOO+++++++O+..+....++++++++++OOOOOO++...ooooXXXX+....  .. ",
"+OXXXoooOO+++++++..++++...+++++++O+OO++O++...XXooXXXOOO++...    ",
".+OXXO++O++++.+++OOO++++....++++OOOO++OO.. .OooooooOOOOO++...   ",
".+OOOOO+++++..+OOOO++++ .......++++++....  .XXooooooXXOOO++...  ",
" .+OOOOO++.....+OOOOO+.  ............     ..OXXoXXoooXXOOO++... ",
"  ..+OO+........+OOO+...  ............   ....OXXXooXXXOOO++++..."
};
