/* XPM */
static char *_b902d54135042a2d51aba9ee72f1c65GXFsYPujXLrIhoGm[] = {
/* columns rows colors chars-per-pixel */
"64 64 11 1 ",
"  c #733F31",
". c #7C4536",
"X c #8F503F",
"o c #9B5643",
"O c #A75D49",
"+ c #B1624D",
"@ c #8B6E67",
"# c #977B73",
"$ c #C66851",
"% c #A2867D",
"& c #A9948D",
/* pixels */
"++$$$$$++++++o@#$$$$++++$$$$$+++$$$$+++++++++o#%$$$$$$++++++++++",
"OOO++OOOOOOOoo@%$+OOOOOOOO++OOOOOO++++OOoooooo#%$+++OOOOOOOOOOOO",
"oooooooooooooX#%$XXooooooooooooooooooooooooooX#%O.oooooooooooooo",
"oooooooooooXXX#%.XXXXoooooooooooooooooooooooXX#%...ooooooooooooo",
"ooooooooooooXX#%.XXXoooooooooooooooooooooXXooo#%.ooooooooooooooo",
"oXXXooooooXXXX#%..XXXXXoooooooooooooooooooXXXo#%..Xooooooooooooo",
"XXoooooooooXXX#%....XoooooooooooooooooooXXXXXX#%...XXooooooXooXX",
"XXXXXooooXXX  #%...XXXooooooooooooooooXXXXX  X#%.XXooooooXXXXooo",
"XXXoooXXXX.   #&..XXXXXXooooooXXXooXXooXXXXX  #%..XXoXXoooXX...X",
"  XXXXXX.XX.. #&.....XXXXXooooooXXXXXXXXXX.   #% ..XXXooXXXXXX..",
" XXXXX....  ..#& ...XXXXXooXXXXXXXX..XX..XXX. #% .....XXXX..... ",
"   XXXX.     .%& ......XXXXXX...XXXX..........#%   .XXXXXXXX....",
"  XX ....     %&  ...XXXXX....XXX......  ..   #%  ...XXXXXX..   ",
"    ...       %&    ..XX.......XXXX.....  ..  #%    ...XX.....  ",
"@@@@@@@@######%&&%%%@@@@@@@@@@@@@@@@@@########%&######@@@@@@@@@@",
"#####%%%%%%%%&&&%%%%%%#############%%%%%%%%%%&&&&%%%%%%%########",
"$$$$+++$$$$$$$+++++ooo+++$$$$o#%$$$$$++$$$++++++ooo+++$$$$$++o@#",
"$++OOOOO++++OOOOOooooooo++++oo#%.+++OOOO+++OOoooooooOOOO++OOoo@#",
"+oOOOOOOOoooooooooooooo++OOoo.#%..OOOOOOOoooOOOoooOOOooOOOOOo.@%",
"o.OOooOOoooooooooooooooooXOO..#%.OOOOOoooooooooooooooooooOOX..#%",
"...OOooOOOoooooooooooooooX....#%..XooOOOoooooooooooooooooXXXX.#%",
".OOoooooooooooooooooooooX..XX.#%...XoooooooooooooXXXooXXXX....#%",
"..oooooooooooooooooXXXoXXXXX..#%.XXXXXooXXXoooXXoooXXoooXXXX..#%",
"....oooooooooooooooooXXXXXXXX.#%.....XXXXooooooXXXXXXXXXXXXXX.#%",
"...oooXXXoooooooooooXXXX..... #%...XXXXXooXXXoooXXXXXXXXXXX.. #%",
".XXXoXXoooooXXXooXXoooXXXX..  #%......XXXXXXXXXXXXXXXXXX..... #%",
"...XXXooooooooXXXXXXXX...XX.. #& ...XXXXXXXXXXXXXXXX...XX..   #%",
".....XXXoooXXX..XXXXXXX....   #&   ..XXXXXXXXXXXXXX.........  #%",
"....XXXooXXX...XXXXX..XX....  %&  ....XXXXXX..XXXXXXX........ #%",
"......XXXXX......XX.......    %&    ....XXX.....XXXX......    #%",
"####@@@@@@@@@@@@@@@@##########%&########@@@@@@@@@@@@@@@@######%&",
"&%%%%%%##########%%%%%%%%%%%%&&&&%%%%%%%%%%##########%%%%%%%%&&&",
"++++oo+++++++o#%$$$$$++++$$$$$++oooo++++$$$$$o#%$$$$++$$$$++++++",
"OOOooooOOOOOOo#%$++OOOOOOO++oooooooooOOOOO++oo#%$+OOOOOO++++OOOO",
"OooooooooOOOoX#%$OOooOOOoooooooooooOOOoooOOOo.#%XOOOoooOOo++++OO",
"OOoooooooooOXX#%+OOOoooOOOoooooooooooooOOOOo..#%XXOOOooooooo+++O",
"oOOOooooooXXXX#%XXoOOooooOOOoooooooooOOOOoo...#%XXXXooooooo++ooo",
"oooooooooXXXXX#%XooooooooooooooooooooooooXXXX.#%XXXooooooooooooo",
"oooooooooooXXX#%XXooXXXooooooooooooooXXXXXXX..#%.XXXXXoooooooooo",
"XoooooooooXXXX#%.XXXXoooooooooooooooooooXX....#%.XXXooooooooooXX",
"ooooooooXXXXXX#%...XooooooooooooooXXXXoooXX...#%..XXXoooooooXXXX",
".XXXoooooXX...#%..XXXXooooooooooooooXXXXXXXXX.#&.XXXXXXooXXooXX.",
"XXoooXXXooXX. #%....XXXXoooooooooXXXXXXXXXXX. %&...XXXooXXXXXX..",
"...oooo..X.   #%...XXXXooXXXooXXoooX...XX...  %&....XXXXX..X....",
".XXXXXXX..    #%......XXXXXXXXXXXX...XXXXXX.. %&..XXXXXXXX......",
"..XXXX......  #%....XXX...XXXXXX......XXXX.   %&....XXXX........",
"@@@@@@@@@#####%&####@@@@@@@@@@@@@@@@@@@@@@####%&######@@@@@@@@@@",
"######%%%%%%%&&&&%%%%%%################%%%%%%%&&%%%%%%%%%#######",
"o++++++$$$$+$+++++ooo++++++++o@#$+++++++$$$$++oooooo+++++++++o#%",
"ooOOOO++++OOOOooooooooooOOOOOo@#$$OOOO+++++OoooooooooOOOOOOooo#%",
".oXO+++++OOooOOOoooooooooOOooX##$OOO++++ooOOOOoooooooooOOOOOo.#%",
".XXXX++ooooooooooooooooOOOoXXX#%XO+++OooooooooooooooooOOOOOO..#%",
"..Xo++oooooooooooooooooooooooX#%XXooooooooooooooooooooooOOO...#%",
".XXXXXooooooooooooooooooooXXXX#%XXXXXooooooooooooooooooOOOOO..#%",
"...XXXXXXXXoooooooooooooooooXX#%XXoooooooooooooooooooooooOO...#&",
"......XXXooooooooooooooooooXXX#%.XXXooooooooooooooooooooooO.. #&",
" ...XXXXooXXXoooooooooooXXXXXX#&...XXXXooooooooooooooooooX.   #&",
" ....XXXXXXXoooooooXXoooooXXX #&..XXXooooooooooooXXoooX...    %&",
"  .....XX..ooXXooXXXoooooXXX  %&.XXX...XXooXXXooXX...XXXX...  %&",
"  ........XXXXXXXXoooo  XXXXX %& ....XXXoo.  .XXooXX......... %&",
"   .....  ......XXXXXXX   .   %&  .......   XXX.     ....     %&",
"    ..     ...XXX...    ....  %&    .......            ...    %&",
"####@@@@@@@@@@@@@@@@@@########%&######@@@@@@@@@@@@@@########%%%&",
"%%%#######################%%%&&%%%%%%%%%%########%%%%%%%%%&&&&&%"
};
