/* XPM */
static char *_2cce5261a9e4be9cf4eaaa05cade7d0dfNdvjxMUwiu3rLS[] = {
/* columns rows colors chars-per-pixel */
"64 64 7 1 ",
"  c #9E8B61",
". c #A59467",
"X c #AE9F76",
"o c #B8A875",
"O c #C8B77A",
"+ c #D7C185",
"@ c #D7CB8D",
/* pixels */
"@@@@@@@@@OOOO+@@@@@@@@@@@@@@++@@@@@+++@@@@@@@@@@@@@@@@@@@@+++OOX",
"O@@@@@@O++OO++++@@@@@@@@++++++++@@OO++++@@@@@@@@@@@@@@+++++oOOOX",
"OOOOOOO++++++OO+++OOOOO+++OOoooO++++OO+O++OOOO+++oo+OOO++OooooOo",
"OOO++oo+O+OO+++OOO+++OOOoO+++++ooooo++++OO+++++OOOOoO++OOO++O++o",
"OooooOO+++++OOOOooXooOO+++OO++O+++++OOOOoooOOOOooOO+++ooO+OO+OOo",
"++OOO++O++OO++OOOOOXXoooOOOOOO+++OO++++OOOoooOoo++OO+++Oooo+++Oo",
"OOOOOOOOooOOOOOO+ooOOOOO+++OoooOO+++OOO++OOO++OOO+++++OOOoooooOo",
"OOOOooooo+++O+++oOOOOO+OO+++OOooooOOO++O++++OOO+++++OOOOOOOOOooo",
"ooooooOOOOOO++OO+OO++++++OOO++OOoooooOOOOO++++OO++OOoo+O+OOO+++X",
"+OOooooOOOooOOOO+++OO+OOOOooOOOoOOOooooooo++++++OOoooOOOO++OO+OX",
"O+++OOooooOOOO++O+++OOooooOOOOOOO+++Oooo++OO++OO++++++OO+ooo+OOX",
"++OOooOOoooooOOO++O++++OoooooOOO+OOO++++++++OO++oOOO+++oooOOOOoX",
"oOO+++OOOOooooooOOO+OOOO++OOooooOOO+++OOOOooo+OOOoooOOOO+++OoooX",
"ooooOO++OOOOOOoooooo++OOO++++OooooooOOooooOOOOOOooOOOOOOOOooOOoX",
"oooooooOOOOooOOOOoooooooooooooooooooooOOoooOOoooooooooooOOOooooX",
"...XXXX.X........XXXX...          ......... .          ......   ",
"+@@@@@Oooo@@@@@@@@@@@@@@@@@@+++X@@@@@@@@@@++@@@@@OOOoooooOOOooOO",
"+++@@++Oo@@@@@@@@@@@@@@@@+++O++X@@@@@@@@++++OO@@++OO+OooOOooo+++",
"+O+++++OOOO+++OOO+OO++OOOO+++++XO+++OOO+++O+++OOO++oOO++OO++OOO+",
"+++ooooooO++OOO+++++OOOOO+OO+++o+OOO++OO+O++OOOO+OO+ooOOOOOO++++",
"oooO+++O++OOOOoOooooOO++OOOoooooo+oOOOOoooO++O++++OOOOooooooOO+o",
"+OOOOO+++OO++OOooo++++OOooooOOOoooOOOoooOOOOO+++OOooooooo++OO+OO",
"O+oo++OOOO++++++++++OO++++OOooOXoOOOooOOoOO++++++++O++O+O+OOO++O",
"+OOooooOOOOO++OOo+O++++OO+++OooXO+ooOOO++O++O++++OO+OO+++OOO++++",
"++OOoooooooOOOoo+++++OO+OOOOO++X+O++OOOOO++++++OoooooOOOOO+OO+++",
"O++OOOOOooooooOO+++oooOOOO+++O+X++OOOOO+++++OooOOOooooooooOO++OO",
"ooOOOO++O+++O+O++OOOOooooOOO+++X+OOO+O+++OOOooOO++OOO+oooooooooo",
"oooo++OO+++OOO++O+oOOOOOO+++O++XOO++O++OO+++OO+OO++O+O++OOooOOOO",
"OOooooOOOOO++ooOOooooOOOOOooo+oXoooOOOOOOoOO++OOOO++++OooooO++oo",
"OoOOOoooooOOooOooOOOooOOoooooo+XoOOoooOOooooOO++OOooooooOO+++O++",
"OOoooooooooooOoooooooooooooooooXOOoooooooooooooooOOOOOoooOOoooOO",
"        .  ......XXXX... .                 ........X.XXXXX...   ",
"++@@@@@@@@+@@@@++O++OOOO@@@@@@@@@@@@@@@@@@@@@@+++@@@@@@@@OO+OO+o",
"+++OO@@@++++@@++++OO+O@@@@@@@@@@@@@@@@@@@+++++OO+++@@@@@+++OOOOo",
"OOOO++++OO++++OOOOOOO+++++++OO+O+O++OO++++OOO+++OOOO++++OOOOO++X",
"+OO++O++++OOOO++OO+++++OOO++++OOO+++++oooOO++OOOOO+O++OO++OO+OOX",
"+++OOOOOOOooooooXXooOO++++OO+O++OOoooo+++OOOO+OO++++OOOOOOoooo+X",
"+OO++++OooooooXXXooooooOO+++OoO++++OO++OO+++OOo++OOO++ooooo+OOOX",
"O+++OOO+++OO+O++++OOooooooOOOOoo++O+++++++OOoo++OO++OoooOO++++OX",
"OO++++++++++OOOO+O++++OOooooOoo+OOOOOO+++OOOOoooooOOooOO+OO++++o",
"ooOO+o+++++O++OoooooOOO++OO++++OO+++ooooOOO+OO+OoooooooOO++O+++o",
"+ooooOO+++OOooooo++OOO+OO++++OO++OooooOO+O++++OOO++OooooOOOOO++o",
"++OooooO+++O+O+++++++OO+++++OooOOoooOO++O++++++++OOOO+OOOO+++++o",
"++OOOOooOO++OOO+OO++OO++OOoooooooO+OOOOO+++++OOO+++OOO++++OO+OOX",
"o+OOOOOO++OOo++OOOOOOooooOOoooOOOOOOO+++OOOOOOooooooooOO++++OOoX",
"oooOOOOOOOOooOOOOOOoOOOooooOOOOOoo++OOOO++OooOOOooooooooOOOOoooX",
"ooooooOOOoooooOOooooooooOOOOOO+OOoooOOOOOOoooooooooooOOOOooooooX",
"...   .....X.XXXXXXXX.....           ...XXXXX...... .           ",
"@@@@OOooOO++@@@@@@@@+@@@@OO+OOOo@@@@@@@@@@ooo@@@OO++OO++@@@@@@@@",
"@@@+OooooOO++@@@@@++++@@+++OO++o@@@@@@@@@ooo@@O+++OOO+O++OO@@@@@",
"+++oooOOoooO++O++++OOOOOO++++OOo+++OO++O++++O+++OOOO+oo++OOO++O+",
"OOooO++OOO+OOO++OOO++O++OOOO++OoO+O++OO+++OO+OOOooooo+++O+O+OO++",
"OooOOOO++o++++O++OooooO+++++OOOooOOOOOooOO++++O++OOO++OOOOO+++OO",
"o+O+OO++++oooOOOO+++oooooOO++OOooo+OoooOOOOOO+++O+++OO++OO++O+++",
"+++O+++oooo+OO++OOO+++OoooooO+OooO+++OOO++OOoOO+++OO++XXooooOOOO",
"++++++OO+O++++OO+++++O++OOooooOXoOO+++++OOOOoooOOOOOoooXXoOOO+++",
"+OO++OO++OOO+++OOO++++OO++OO++OXOO+OOO+++OO++oooooooooOOOO+++OO+",
"++OOooooo++OOOOO++OOOO+++O++OOOX++OO++oO+++OOOOooooOO++O+OO+++OO",
"ooooooOOOO+++++++oooO+OOO++++OOXOOooooOOOOO++OO++OO++OO+++++++oo",
"ooOOO+O+++OOOO++++ooooO+++OO++OoooooOOOO+++OO+OO+++OooOOOOoooooo",
"OO+OOOOOoooo++++OOOOooooOOOOooOXOOOOOOOooO++OOO+OOOOOOoooooooOOO",
"OOOOooooooOOOOO++++OOOoooOoooooXOOOOOoooooOOOO+OOOOoooooooOOOO+O",
"oooooooooooooOOOOOOooooooooooooXoooooooooooooooooooooooooooooooo",
"   .......   .     ......XX.XXXXXXXX.......   .                 "
};
